{
  "accessors": [
    {
      "bufferView": 1,
      "componentType": 5126,
      "count": 65532,
      "max": [
        2.8264000415802,
        2.9586100578308105,
        3.230139970779419
      ],
      "min": [
        -3.320780038833618,
        -3.444890022277832,
        -3.2322399616241455
      ],
      "type": "VEC3"
    },
    {
      "bufferView": 1,
      "byteOffset": 786384,
      "componentType": 5126,
      "count": 65532,
      "max": [
        0.9999448657035828,
        0.999122142791748,
        0.9999071359634399
      ],
      "min": [
        -0.9998965263366699,
        -0.999101459980011,
        -0.9999327659606934
      ],
      "type": "VEC3"
    },
    {
      "bufferView": 0,
      "componentType": 5125,
      "count": 98298,
      "type": "SCALAR"
    },
    {
      "bufferView": 1,
      "byteOffset": 1572768,
      "componentType": 5126,
      "count": 7428,
      "max": [
        2.1327900886535645,
        0.18212999403476715,
        1.09375
      ],
      "min": [
        -0.5729799866676331,
        -3.3939199447631836,
        -3.176219940185547
      ],
      "type": "VEC3"
    },
    {
      "bufferView": 1,
      "byteOffset": 1661904,
      "componentType": 5126,
      "count": 7428,
      "max": [
        0.9996142983436584,
        0.9983998537063599,
        0.9969565272331238
      ],
      "min": [
        -0.9977962970733643,
        -0.9969238042831421,
        -0.9879720211029053
      ],
      "type": "VEC3"
    },
    {
      "bufferView": 0,
      "byteOffset": 393192,
      "componentType": 5125,
      "count": 11142,
      "type": "SCALAR"
    }
  ],
  "asset": {
    "extras": {
      "author": "William Zarek (https://sketchfab.com/bugbilly)",
      "license": "CC-BY-4.0 (http://creativecommons.org/licenses/by/4.0/)",
      "source": "https://sketchfab.com/3d-models/polyhedral-bow-f2e467fa47c8475c8c8baa1c2540c78d",
      "title": "Polyhedral Bow"
    },
    "generator": "Sketchfab-12.67.0",
    "version": "2.0"
  },
  "bufferViews": [
    {
      "buffer": 0,
      "byteLength": 437760,
      "name": "floatBufferViews",
      "target": 34963
    },
    {
      "buffer": 0,
      "byteLength": 1751040,
      "byteOffset": 437760,
      "byteStride": 12,
      "name": "floatBufferViews",
      "target": 34962
    }
  ],
  "buffers": [
    {
      "byteLength": 2188800,
      "uri": "scene.bin"
    }
  ],
  "materials": [
    {
      "doubleSided": true,
      "name": "Root",
      "pbrMetallicRoughness": {
        "metallicFactor": 0.0,
        "roughnessFactor": 0.6
      }
    }
  ],
  "meshes": [
    {
      "name": "Icosphere_0",
      "primitives": [
        {
          "attributes": {
            "NORMAL": 1,
            "POSITION": 0
          },
          "indices": 2,
          "material": 0,
          "mode": 4
        }
      ]
    },
    {
      "name": "Icosphere_0",
      "primitives": [
        {
          "attributes": {
            "NORMAL": 4,
            "POSITION": 3
          },
          "indices": 5,
          "material": 0,
          "mode": 4
        }
      ]
    }
  ],
  "nodes": [
    {
      "children": [
        1
      ],
      "matrix": [
        0.21727654337882996,
        0.0,
        0.0,
        0.0,
        0.0,
        4.8245084234028725e-17,
        -0.21727654337882996,
        0.0,
        0.0,
        0.21727654337882996,
        4.8245084234028725e-17,
        0.0,
        0.0,
        0.0,
        0.0,
        1.0
      ],
      "name": "Sketchfab_model"
    },
    {
      "children": [
        2,
        4
      ],
      "name": "Root"
    },
    {
      "children": [
        3
      ],
      "matrix": [
        -0.29086000000000006,
        0.9551700000000001,
        -0.05519000000000001,
        0.0,
        -0.7711,
        -0.19988000000000003,
        0.6045200000000001,
        0.0,
        0.5663900000000001,
        0.21839000000000003,
        0.7946700000000001,
        0.0,
        4.076250000000001,
        1.00545,
        5.903860000000001,
        1.0
      ],
      "name": "Lamp"
    },
    {
      "name": "Lamp"
    },
    {
      "children": [
        5,
        6
      ],
      "name": "Icosphere"
    },
    {
      "mesh": 0,
      "name": "Icosphere_0"
    },
    {
      "mesh": 1,
      "name": "Icosphere_0"
    }
  ],
  "scene": 0,
  "scenes": [
    {
      "name": "Sketchfab_Scene",
      "nodes": [
        0
      ]
    }
  ]
}
